# xmcd
#
# Track frame offsets:
#	150
#	19965
#	38024
#	53710
#	73200
#	93303
#	114263
#	135321
#	154587
#	172786
#	197417
#	220190
#	238268
#
# Disc length: 3432 seconds
#
# Revision: 0
# Processed by: cddbd v1.4PL0 Copyright (c) Steve Scherf et al.
# Submitted via: EasyCDDAExtractor 4.6.0.1
#
DISCID=a40d660d
DTITLE=Dave Steffen Band - Half A Million Miles
DYEAR=2000
DGENRE=Blues
TTITLE0=Drive My Car
TTITLE1=Never Get The Blues
TTITLE2=Drive Me Crazy
TTITLE3=Cool Clear Water
TTITLE4=Redwood Run
TTITLE5=You're My Soul, Baby
TTITLE6=Wildcat
TTITLE7=Walk in the Rain
TTITLE8=The Storm is Gone
TTITLE9=The Good Life
TTITLE10=Fade Away
TTITLE11=No Mercy
TTITLE12=So Long Sweet Angel
EXTD=
EXTT0=
EXTT1=
EXTT2=
EXTT3=
EXTT4=
EXTT5=
EXTT6=
EXTT7=
EXTT8=
EXTT9=
EXTT10=
EXTT11=
EXTT12=
PLAYORDER=
